<svg width="40" height="840" viewBox="0 0 40 840" fill="none" xmlns="http://www.w3.org/2000/svg">
<path d="M15 5.63005C15 -1.87648 25 -1.87688 25 5.63005C25 5.63005 25 826.9 25 834.386C25 841.871 15 841.871 15 834.386C15 826.9 15 5.63005 15 5.63005Z" fill="#5C5C5C"/>
<path d="M37.5 627C37.5 636.665 29.665 644.5 20 644.5C10.335 644.5 2.5 636.665 2.5 627C2.5 617.335 10.335 609.5 20 609.5C29.665 609.5 37.5 617.335 37.5 627Z" fill="#EEEEEE" stroke="#F8C73A" stroke-width="5"/>
<path d="M37.5 92C37.5 101.665 29.665 109.5 20 109.5C10.335 109.5 2.5 101.665 2.5 92C2.5 82.335 10.335 74.5 20 74.5C29.665 74.5 37.5 82.335 37.5 92Z" fill="#EEEEEE" stroke="#F8C73A" stroke-width="5"/>
<circle cx="20" cy="357" r="17.5" fill="#EEEEEE" stroke="#6BA744" stroke-width="5"/>
<path d="M23.5 4C23.5 5.87926 21.7661 7.5 19.5 7.5C17.2339 7.5 15.5 5.87926 15.5 4C15.5 2.12074 17.2339 0.5 19.5 0.5C21.7661 0.5 23.5 2.12074 23.5 4Z" fill="#5C5C5C" stroke="#5C5C5C"/>
<circle cx="20.5" cy="835.5" r="4" fill="#5C5C5C" stroke="#5C5C5C"/>
<g clip-path="url(#clip0_485_674)">
<path d="M19.5 91.5C20.7882 91.5 22.0236 90.9996 22.9345 90.1088C23.8454 89.218 24.3571 88.0098 24.3571 86.75C24.3571 85.4902 23.8454 84.282 22.9345 83.3912C22.0236 82.5004 20.7882 82 19.5 82C18.2118 82 16.9764 82.5004 16.0655 83.3912C15.1546 84.282 14.6429 85.4902 14.6429 86.75C14.6429 88.0098 15.1546 89.218 16.0655 90.1088C16.9764 90.9996 18.2118 91.5 19.5 91.5ZM17.7658 93.2812C14.0281 93.2812 11 96.2426 11 99.8979C11 100.506 11.5047 101 12.127 101H26.873C27.4953 101 28 100.506 28 99.8979C28 96.2426 24.9719 93.2812 21.2342 93.2812H17.7658Z" fill="#5C5C5C"/>
</g>
<g clip-path="url(#clip1_485_674)">
<path d="M26.9951 357.487C26.9951 357.944 26.6306 358.302 26.2174 358.302H25.4396L25.4566 362.37C25.4566 362.438 25.4517 362.507 25.4444 362.576V362.984C25.4444 363.546 25.0094 364 24.4722 364H24.0833C24.0566 364 24.0299 364 24.0031 363.997C23.9691 364 23.9351 364 23.901 364H23.1111H22.5278C21.9906 364 21.5556 363.546 21.5556 362.984V362.375V360.75C21.5556 360.301 21.208 359.938 20.7778 359.938H19.2222C18.792 359.938 18.4444 360.301 18.4444 360.75V362.375V362.984C18.4444 363.546 18.0094 364 17.4722 364H16.8889H16.1135C16.0771 364 16.0406 363.997 16.0042 363.995C15.975 363.997 15.9458 364 15.9167 364H15.5278C14.9906 364 14.5556 363.546 14.5556 362.984V360.141C14.5556 360.118 14.5556 360.092 14.558 360.07V358.302H13.7778C13.3403 358.302 13 357.947 13 357.487C13 357.259 13.0729 357.056 13.2431 356.878L19.475 351.203C19.6451 351.025 19.8396 351 20.0097 351C20.1799 351 20.3743 351.051 20.5201 351.178L26.7278 356.878C26.9222 357.056 27.0194 357.259 26.9951 357.487Z" fill="#5C5C5C"/>
</g>
<path d="M12.25 621.922C12.25 621.429 12.4344 620.956 12.7626 620.607C13.0908 620.258 13.5359 620.062 14 620.062C14.4641 620.062 14.9092 620.258 15.2374 620.607C15.5656 620.956 15.75 621.429 15.75 621.922C15.75 622.415 15.5656 622.888 15.2374 623.237C14.9092 623.585 14.4641 623.781 14 623.781C13.5359 623.781 13.0908 623.585 12.7626 623.237C12.4344 622.888 12.25 622.415 12.25 621.922ZM12 627.158C11.6875 627.53 11.5 628.025 11.5 628.562C11.5 629.1 11.6875 629.595 12 629.967V627.158ZM16.5125 625.521C15.5844 626.394 15 627.673 15 629.094C15 630.233 15.375 631.279 16 632.099V632.812C16 633.4 15.5531 633.875 15 633.875H13C12.4469 633.875 12 633.4 12 632.812V631.923C10.8188 631.325 10 630.047 10 628.562C10 626.507 11.5656 624.844 13.5 624.844H14.5C15.25 624.844 15.9437 625.093 16.5125 625.518V625.521ZM24 632.812V632.099C24.625 631.279 25 630.233 25 629.094C25 627.673 24.4156 626.394 23.4875 625.518C24.0563 625.093 24.75 624.844 25.5 624.844H26.5C28.4344 624.844 30 626.507 30 628.562C30 630.047 29.1812 631.325 28 631.923V632.812C28 633.4 27.5531 633.875 27 633.875H25C24.4469 633.875 24 633.4 24 632.812ZM24.25 621.922C24.25 621.429 24.4344 620.956 24.7626 620.607C25.0908 620.258 25.5359 620.062 26 620.062C26.4641 620.062 26.9092 620.258 27.2374 620.607C27.5656 620.956 27.75 621.429 27.75 621.922C27.75 622.415 27.5656 622.888 27.2374 623.237C26.9092 623.585 26.4641 623.781 26 623.781C25.5359 623.781 25.0908 623.585 24.7626 623.237C24.4344 622.888 24.25 622.415 24.25 621.922ZM28 627.158V629.97C28.3125 629.595 28.5 629.104 28.5 628.566C28.5 628.028 28.3125 627.533 28 627.161V627.158ZM20 620.062C20.5304 620.062 21.0391 620.286 21.4142 620.685C21.7893 621.083 22 621.624 22 622.188C22 622.751 21.7893 623.292 21.4142 623.69C21.0391 624.089 20.5304 624.312 20 624.312C19.4696 624.312 18.9609 624.089 18.5858 623.69C18.2107 623.292 18 622.751 18 622.188C18 621.624 18.2107 621.083 18.5858 620.685C18.9609 620.286 19.4696 620.062 20 620.062ZM17.5 629.094C17.5 629.632 17.6875 630.123 18 630.498V627.689C17.6875 628.064 17.5 628.556 17.5 629.094ZM22 627.689V630.502C22.3125 630.126 22.5 629.635 22.5 629.097C22.5 628.559 22.3125 628.064 22 627.693V627.689ZM24 629.094C24 630.578 23.1812 631.856 22 632.454V633.875C22 634.463 21.5531 634.938 21 634.938H19C18.4469 634.938 18 634.463 18 633.875V632.454C16.8187 631.856 16 630.578 16 629.094C16 627.038 17.5656 625.375 19.5 625.375H20.5C22.4344 625.375 24 627.038 24 629.094Z" fill="#5C5C5C"/>
<defs>
<clipPath id="clip0_485_674">
<rect width="17" height="19" fill="white" transform="translate(11 82)"/>
</clipPath>
<clipPath id="clip1_485_674">
<rect width="14" height="13" fill="white" transform="translate(13 351)"/>
</clipPath>
</defs>
</svg>
