<svg width="27" height="27" viewBox="0 0 27 27" fill="none" xmlns="http://www.w3.org/2000/svg">
<path d="M22.4622 8.39062H5.12886C3.93224 8.39062 2.96219 9.36067 2.96219 10.5573V21.3906C2.96219 22.5872 3.93224 23.5573 5.12886 23.5573H22.4622C23.6588 23.5573 24.6289 22.5872 24.6289 21.3906V10.5573C24.6289 9.36067 23.6588 8.39062 22.4622 8.39062Z" stroke="white" stroke-width="2" stroke-linecap="round" stroke-linejoin="round"/>
<path d="M18.1289 23.5576V6.22428C18.1289 5.64965 17.9006 5.09855 17.4943 4.69222C17.0879 4.28589 16.5368 4.05762 15.9622 4.05762H11.6289C11.0542 4.05762 10.5031 4.28589 10.0968 4.69222C9.69046 5.09855 9.46219 5.64965 9.46219 6.22428V23.5576" stroke="white" stroke-width="2" stroke-linecap="round" stroke-linejoin="round"/>
</svg>
