<svg width="26" height="26" viewBox="0 0 26 26" fill="none" xmlns="http://www.w3.org/2000/svg">
<path d="M18.4167 22.7578V20.5911C18.4167 19.4419 17.9602 18.3397 17.1475 17.527C16.3348 16.7144 15.2326 16.2578 14.0834 16.2578H5.41671C4.26744 16.2578 3.16524 16.7144 2.35258 17.527C1.53992 18.3397 1.08337 19.4419 1.08337 20.5911V22.7578" stroke="white" stroke-width="2" stroke-linecap="round" stroke-linejoin="round"/>
<path d="M9.74996 11.9245C12.1432 11.9245 14.0833 9.98438 14.0833 7.59115C14.0833 5.19791 12.1432 3.25781 9.74996 3.25781C7.35673 3.25781 5.41663 5.19791 5.41663 7.59115C5.41663 9.98438 7.35673 11.9245 9.74996 11.9245Z" stroke="white" stroke-width="2" stroke-linecap="round" stroke-linejoin="round"/>
<path d="M24.9166 22.7576V20.5909C24.9159 19.6308 24.5963 18.6981 24.0081 17.9393C23.4199 17.1804 22.5963 16.6385 21.6666 16.3984" stroke="white" stroke-width="2" stroke-linecap="round" stroke-linejoin="round"/>
<path d="M17.3334 3.39844C18.2655 3.6371 19.0917 4.1792 19.6816 4.93927C20.2716 5.69935 20.5919 6.63417 20.5919 7.59635C20.5919 8.55854 20.2716 9.49336 19.6816 10.2534C19.0917 11.0135 18.2655 11.5556 17.3334 11.7943" stroke="white" stroke-width="2" stroke-linecap="round" stroke-linejoin="round"/>
</svg>
