<svg width="34" height="29" viewBox="0 0 34 29" fill="none" xmlns="http://www.w3.org/2000/svg">
<path d="M22.6665 9.66699C24.9208 9.66699 27.0829 10.4308 28.6769 11.7905C30.271 13.1501 31.1665 14.9942 31.1665 16.917V25.3753H25.4998V16.917C25.4998 16.2761 25.2013 15.6614 24.67 15.2082C24.1386 14.7549 23.418 14.5003 22.6665 14.5003C21.9151 14.5003 21.1944 14.7549 20.663 15.2082C20.1317 15.6614 19.8332 16.2761 19.8332 16.917V25.3753H14.1665V16.917C14.1665 14.9942 15.062 13.1501 16.6561 11.7905C18.2502 10.4308 20.4122 9.66699 22.6665 9.66699Z" stroke="black" stroke-width="2" stroke-linecap="round" stroke-linejoin="round"/>
<path d="M8.50016 10.875H2.8335V25.375H8.50016V10.875Z" stroke="black" stroke-width="2" stroke-linecap="round" stroke-linejoin="round"/>
<path d="M5.66683 7.25033C7.23164 7.25033 8.50016 6.16835 8.50016 4.83366C8.50016 3.49897 7.23164 2.41699 5.66683 2.41699C4.10202 2.41699 2.8335 3.49897 2.8335 4.83366C2.8335 6.16835 4.10202 7.25033 5.66683 7.25033Z" stroke="black" stroke-width="2" stroke-linecap="round" stroke-linejoin="round"/>
</svg>
